<?xml version="1.0" standalone="no"?>
<!DOCTYPE svg PUBLIC "-//W3C//DTD SVG 20010904//EN"
 "http://www.w3.org/TR/2001/REC-SVG-20010904/DTD/svg10.dtd">
<svg version="1.0" xmlns="http://www.w3.org/2000/svg"
 width="643.000000pt" height="288.000000pt" viewBox="0 0 643.000000 288.000000"
 preserveAspectRatio="xMidYMid meet">

<g transform="translate(0.000000,288.000000) scale(0.100000,-0.100000)"
fill="#000000" stroke="none">
<path d="M3535 2500 c-276 -44 -441 -217 -422 -447 6 -83 53 -179 110 -228 56
-49 170 -102 352 -165 179 -62 214 -79 270 -131 56 -51 68 -84 63 -161 -5 -77
-29 -130 -84 -185 -172 -172 -484 -139 -614 64 l-27 42 -19 -42 c-10 -23 -41
-66 -69 -95 -48 -52 -49 -54 -30 -69 37 -29 180 -92 260 -115 67 -19 103 -23
220 -23 225 1 388 51 495 151 100 93 142 197 144 354 1 128 -18 174 -101 250
-68 63 -154 104 -361 174 -192 65 -271 105 -318 159 -38 45 -49 85 -42 157 9
87 88 172 188 200 52 15 159 12 217 -5 58 -17 138 -83 167 -138 l19 -34 29 58
c16 32 44 71 64 88 l34 30 -22 15 c-38 25 -132 64 -194 81 -72 19 -248 27
-329 15z"/>
<path d="M244 2410 c4 -47 11 -137 16 -200 5 -63 10 -257 10 -430 1 -360 9
-431 64 -547 61 -129 172 -214 336 -259 83 -23 356 -26 440 -5 258 63 407 260
425 561 3 47 10 233 15 414 6 181 13 379 16 440 l7 111 -89 0 -89 0 3 -440 c4
-465 -2 -572 -40 -695 -53 -170 -150 -256 -321 -281 -199 -30 -377 48 -451
197 -56 113 -61 154 -61 579 0 215 4 446 8 515 l8 125 -152 0 -152 0 7 -85z"/>
<path d="M1704 1997 c0 -432 -11 -780 -30 -957 l-6 -56 84 0 84 0 -3 556 -4
555 93 -95 c194 -199 666 -716 867 -950 l72 -84 53 -2 52 -2 1 467 c1 416 14
897 28 1006 l5 40 -86 0 -86 0 6 -65 c3 -36 9 -281 12 -545 l7 -480 -23 20
c-33 29 -389 409 -724 773 l-287 312 -57 0 -57 0 -1 -493z"/>
<path d="M4212 2320 c80 -214 145 -413 227 -700 63 -219 171 -621 171 -635 0
-3 42 -5 93 -5 l92 1 190 574 c104 316 192 575 195 575 11 0 264 -804 345
-1095 l16 -60 91 5 91 5 89 285 c49 157 158 492 242 745 l152 460 -81 0 -81 0
-18 -75 c-48 -199 -316 -1110 -327 -1110 -3 0 -11 19 -18 43 -7 23 -73 233
-146 467 -132 420 -174 557 -194 635 l-10 40 -87 -1 -87 -1 -49 -164 c-42
-142 -94 -303 -294 -919 l-37 -115 -24 75 c-42 136 -171 611 -236 868 l-63
254 -150 1 -150 2 58 -155z"/>
<path d="M1643 743 c-12 -2 -36 -17 -53 -33 -25 -23 -30 -36 -30 -73 0 -54 25
-89 83 -118 60 -30 77 -48 77 -80 0 -37 -24 -59 -65 -59 -24 0 -39 7 -53 25
-23 29 -37 32 -46 9 -19 -49 18 -84 89 -84 82 0 145 56 145 131 0 49 -31 85
-96 114 -66 29 -85 61 -60 100 10 15 26 25 41 25 24 0 55 -23 55 -41 0 -16 28
-9 33 9 2 9 8 24 11 33 6 12 -3 20 -34 33 -40 16 -54 17 -97 9z"/>
<path d="M3400 607 c0 -79 -3 -172 -6 -206 l-7 -61 31 0 31 0 3 135 3 134 124
-139 c67 -77 129 -140 137 -140 11 0 14 40 16 205 l3 205 -30 0 -30 0 3 -137
c3 -137 3 -138 -16 -118 -11 11 -68 74 -127 140 -59 66 -114 121 -121 123 -11
3 -14 -24 -14 -141z"/>
<path d="M2131 623 l69 -118 0 -82 0 -83 35 0 35 0 0 86 0 87 69 113 69 114
-33 0 c-32 0 -36 -4 -77 -82 -24 -46 -48 -83 -53 -83 -5 0 -29 37 -53 83 l-44
82 -43 0 -44 0 70 -117z"/>
<path d="M2705 540 l0 -200 105 0 c164 1 229 43 252 166 13 74 0 130 -43 179
-39 44 -79 55 -209 55 l-105 0 0 -200z m225 137 c58 -29 78 -143 40 -223 -25
-51 -68 -74 -139 -74 l-51 0 0 155 0 155 63 0 c34 0 73 -6 87 -13z"/>
<path d="M4075 540 l0 -200 110 0 110 0 0 26 0 27 -72 -6 -73 -5 0 69 0 69 65
0 c65 0 65 0 65 29 l0 29 -65 -6 -65 -5 0 63 0 63 70 -6 70 -6 0 30 0 29 -107
0 -108 0 0 -200z"/>
<path d="M4570 736 c0 -2 32 -58 71 -125 l71 -121 -7 -75 -7 -75 42 0 42 0 -7
83 -6 82 61 100 c90 146 86 135 48 135 -31 0 -36 -5 -78 -85 -24 -47 -48 -85
-51 -85 -4 0 -27 38 -51 85 l-43 85 -42 0 c-24 0 -43 -2 -43 -4z"/>
</g>
</svg>
