<svg id="Layer_1" data-name="Layer 1" xmlns="http://www.w3.org/2000/svg" viewBox="0 0 1000 1000"><defs><style>.cls-1{fill:#d1d3d4;}</style></defs><path class="cls-1" d="M512.36,570.4h35v-5.12h-35Zm0,14.46h35v-5.13h-35Zm0-28.91h35v-5.13h-35Zm-24.72,9.33h-35v5.12h35Zm0,14.45h-35v5.13h35Zm0-28.91h-35V556h35Zm55-92.32c-14-.93-28.44-.93-42.89-.93-14,0-28.44.47-42.43.93v70.41H323.06c5.59,33.57,19.11,65.27,39.16,91.38a14.81,14.81,0,0,1,12.12-6.06H457.8v73.21A160.6,160.6,0,0,0,500.23,693v0a158,158,0,0,0,42.43-5.59V614.23h83.46a14.81,14.81,0,0,1,12.13,6.06,211.49,211.49,0,0,0,39.16-91.38H542.66V458.5Zm-67.14,21.92,18.19,8.39,6.52-18.65,6.53,19.12,17.72-8.86-8.86,18.18,18.65,6.53-19.12,6.53L524,529.37,505.83,521l-6.53,18.65-7-19.11-16.79,9.32,8.39-18.18-18.65-6.53,19.12-6.53c-.47-.47-8.86-18.18-8.86-18.18Zm-63.88,116.1-17.71-8.86-6.53,19.11-6.53-18.65-18.18,8.4,8.86-17.72-19.12-6.53,18.65-6.53-8.86-18.18,17.72,8.86,6.53-19.12L393,556l18.19-8.39-8.86,17.72,19.12,7-18.65,6.53Zm28.91-1.4h-7.92v-5.6h7.92Zm0-15.39h-7.92v-5.6h7.92Zm0-15.39h-7.92v-5.59h7.92v5.59Zm0-15.85h-7.92V542.9h7.92Zm4.2,46.63v-56h37.77a13.73,13.73,0,0,1,14,14v46.63a13.93,13.93,0,0,0-10.72-5.13C484.85,595.12,455.94,595.12,444.75,595.12Zm79.73,72.73-18.19-8.39-6.52,18.65-7-19.12-17.25,8.86,8.86-18.18-18.65-6.53,19.12-7-9.33-17.72,18.19,8.39,6.52-18.65,7,19.12,17.71-8.86-8.39,18.18,18.65,6.53-19.11,7Zm63.41-120.76,18.18,8.39,6.53-18.65,7,19.12,17.72-8.86-8.86,18.19,18.65,6.52L628,578.33l8.86,17.72-18.19-8.39-6.53,18.65-6.06-18.65-17.71,8.86,8.85-18.19-18.65-6.53,19.12-7c-.93,0-9.79-17.72-9.79-17.72Zm-28.44-4.19h7.92v5.59h-7.92Zm0,15.38h7.92v5.6h-7.92Zm0,15.39h7.92v5.59h-7.92Zm0,15.85h7.92v5.6h-7.92Zm-4.2-50.35v56H514.69A13.25,13.25,0,0,0,504,600.25V553.62a13.74,13.74,0,0,1,14-14h2.33c-.46-.46,35-.46,35-.46Zm69-237.8c-34.51-7.46-80.2-14.45-124.49-14.45-66.21,0-135.68,16.32-166.46,24.71-6.06,1.4-10.72,2.8-13.52,3.73V465.5c20-3.27,102.11-15.86,180-15.86s159.92,12.59,180,15.86V314.9c-2.8-.94-7-1.87-13.52-3.73-9.79-2.34-24.71-6.07-42-9.8Zm-187.9,15.86c2.79-.47-3.27-5.13.46-5.13,2.33,0,10.73,0,16.79,3.26,1.4.47,1.86-1.86,4.19-3.26,0,0,.94-.47,1.4,0,2.33,1.4,3.27,3.73,4.67,3.26,6.06-2.8,14.45-2.8,16.78-3.26,4.2-.47-1.86,4.19.47,5.13,14,3.26,24.24,14.92,24.24,29.37A32.44,32.44,0,0,1,503,358.26c-.93,1.86-2.8-3.73-3.73-.47-.47,5.6-1.86,9.79-5.13,15.85-2.8,5.6-7.92-6.06-9.32-2.79-2.8,5.59-8.86,7.46-13.52,8.39-.47,0-.94,0-.47-.47a5.15,5.15,0,0,0,1.4-3.26,1.44,1.44,0,0,1,.46-.93,11,11,0,0,0,6.53-8.4c.93-3.26,2.33-8.39,4.2-11.65,3.73-6.53-.93-14.92.46-16.79a9.15,9.15,0,0,0,4.2-7.92,9.86,9.86,0,0,0-9.79-9.8,9.08,9.08,0,0,0-7,3.27l-.47.46a12.48,12.48,0,0,0-2.33,2.8,2.52,2.52,0,0,0,.93,3.73c6.53,1.87,10.72,16.32,7.93,21-1.4,2.34-4.67,10.26-4.67,12.13a5.18,5.18,0,0,1-5.12,5.13,5.72,5.72,0,0,1-5.13-3.27c1.86-.93,5.59-3.73,5.59-6.06l-.93-7.93c3.26-.46,4.66-2.33,5.13-5.12.46,0,.46-.47.93-.47.93-.93,1.87-3.73-.47-3.26-3.26.46-7,.46-10.72,1.39a1,1,0,0,0-.93.94c0,.46,1.86,10.25,2.33,12.59,0,.46,0,.46-.47.46-1.4,0-4.19-.46-4.66-.46a19.54,19.54,0,0,0-4.66.46.46.46,0,0,1-.47-.46c.47-2.34,2.8-12.13,2.8-12.13v-.93c-.47-.93-10.26-1.86-11.66-1.86a1.74,1.74,0,0,0-1.4.46c-.93,1.4.94,2.8,1.87,3.27.46,2.79,1.86,4.66,5.13,5.12,0,.47-.94,7.93-.94,7.93,0,2.8,3.73,4.66,6.07,6.06l.46.47a5.74,5.74,0,0,1-5.13,3.26,5.18,5.18,0,0,1-5.13-5.13c0-1.86-3.73-10.25-4.66-12.59-2.8-5.12,1.4-19.58,8.39-21a2.23,2.23,0,0,0,.94-3.73c-2.8-2.8-6.06-6.53-10.26-6.53a9.85,9.85,0,0,0-9.79,9.8c0,6.06,4.66,7,4.19,8.86-1.86,5.59-1.86,11.65.47,15.85,1.87,2.8,3.26,7.92,4.2,11.19a11.91,11.91,0,0,0,5.59,8.39c1.4.93.93,1.87,1.4,3.26.47.47.93.94.93,1.4.47.47,0,.47-.46.47-4.67-.47-11.19-2.33-14-8.39-1.4-3.27-6.53,7.92-9.33,2.79a43.15,43.15,0,0,1-5.59-15.85c-.93-3.26-2.8,2.33-3.73.47a29.84,29.84,0,0,1,22.85-41ZM476.45,327v-.93a3.56,3.56,0,0,1,2.34-.94,4.29,4.29,0,0,1,2.79,7.46c-.46.47-.93,0-.93-.46A14.48,14.48,0,0,0,476.45,327Zm-9.79,48c-.93,2.8-4.66,1.87-7,3.27h-.93c-1.87-1.87-5.6-.94-7-3.73,0,0,0-.94.47-.94a10.35,10.35,0,0,0,7-3.73.66.66,0,0,1,.94,0c1.39,1.87,3.73,2.8,6.06,3.27.46.93.93,1.4.46,1.86Zm-28.44-42a.64.64,0,0,1-.93,0,4.24,4.24,0,0,1-1.4-3.26,4.17,4.17,0,0,1,4.2-4.2,3.31,3.31,0,0,1,2.79,1.4.64.64,0,0,1,0,.93A10.11,10.11,0,0,0,438.22,333.08ZM400,388.1c-2.8,0-4.2.93-6.06,2.33-1.4.93-1.87-1.87,0-7,1.4-4.2-7-6.53-8.86-4.67-2.8,2.33-9.79,6.53-16.79-.93-1.4-1.4,3.27-.93,3.27-2.33.46-1.87,2.33-2.8,2.79-3.73a1.16,1.16,0,0,0-.46-1.87,7.15,7.15,0,0,1-4.2-8.39c0-.46-3.73-.93-2.33-1.86,6.53-6.06,13.52-2.33,16.32-.47.47,0,1.4.47,1.4-.47,0-1.86-.93-3.26,3.26-6.52.93-.47-2.33-3.27,0-3.27,13.52,3.27,7.46,17.25,10.26,20.05,5.13,4.66,17.72,8.39,29.37,10.73a25.91,25.91,0,0,1,5.6,1.86c9.32,4.66,15.38,4.2,20.51,2.33,1.87-.46,1.4,1.4.94,1.87-18.65,17.71-33.11,13.52-38.24,10.25-3.73-2.33-10.72-2.33-14,2.34-.47.46-1.4.93-1.87-.47-.93-3.26,0-5.6.93-8.39.47-.94-.93-1.4-1.86-1.4ZM579.5,404.88c-2.33,2.33-7,4.67-14,4.2a8.28,8.28,0,0,0-5.13,1.4c-.93.93-.93,1.4-.93,1.86a4.47,4.47,0,0,0,.93,4.2c.93.93.47,1.87-.93,1.87-1.4.46-2.8.46-5.6-.94-1.4-.46-1.86,0-1.86.94-.47,1.39.46,3.26,2.33,4.66.93.93.93,1.86-.93,2.33-2.8.93-5.13-.47-8.86-2.33-2.33-1.4-4.2-1.4-5.6.46-.93.94-.93,1.87-.46,2.34,1.39,1.39,2.33,4.66-1.4,9.32-1.4,1.4-2.8-2.8-3.73-2.33-5.13,2.33-9.33-.93-11.19-2.8-.47-.46-.94-.46-1.87,0-2.8,1.87-8.39,4.66-10.26-.46-.46-.94-3.26.93-3.26-.47,0-8.39,7.46-9.79,10.26-10.26.93,0,.93-.46.46-1.4-1.39-1.86-2.79-4.19-1.86-6.53.47-1.86-4.2-2.33-2.33-3.26,9.79-4.66,14.92,4.2,16.78,5.13,2.8,1.4,15.39-2.33,16.79-9.33.47-1.39-2.8-1.86-6.06-2.79-.47,0-.94-.94,0-1.87,7.46-5.59,13.52-13.05,27.51-14.45a2.11,2.11,0,0,1,2.33,1.86,22.89,22.89,0,0,0,1.86,6.06,19.77,19.77,0,0,0,7,8.86,3.57,3.57,0,0,1,0,3.73Zm57.35-4.66c1.4.47,1.4,1.4.46,2.33S635,404,631.72,404c-1.4,0-1.4.93-1.4,1.4,0,1.4,1.86,2.8,4.2,2.8,1.39.46,1.39,1.4.46,2.33-1.86,1.86-4.66,1.86-9.32,1.86-4.2,0-7.46,5.13-5.13,7,1.86,1.4,5.13,4.66,2.33,13.52-.93,2.8-2.33-2.33-3.73-1.4-3.73,2.33-6.53-.47-8.39-2.33a1,1,0,0,0-1.87,0c-1.4,2.33-5.13,7-12.59,2.8-1.4-.94-5.13,2.33-5.13.93-1.4-6.06,1.87-9.33,4.2-11.19.47,0,1.4-1.4-.47-1.4-2.33,0-5.59-.93-6.06-4.2,0-.46-3.26-.46-3.26-1.39.93-4.2,10.26-7.47,16.78-3.27,5.6,3.73,12.59-8.86,7.46-14.45-3.73-4.2-24.71,7.46-31.7-7.46-2.8-6.06.93-11.19-2.33-11.66-2.8-.47-16.32-3.26-30.78,8.39-24.71,20-51.75,8.86-58.28,4.67a1,1,0,0,0-1.4,1.39,8.82,8.82,0,0,1-.46,7c-2.8,3.73-11.66,7.92-13.06,8.39-10.26,3.26-9.32,11.19-8.39,14.46.47.93,0,1.86-1.4,1.39-3.26-.46-9.79-2.33-12.12-8.86-.47-.93-.94-.93-1.87,0-3.73,2.8-2.33,7-1.4,8.4.47.93,0,1.4-.93,1.4-3.73.46-6.06-3.73-9.32-3.27-1.87,0-4.2,1.87-5.6,2.8a2.06,2.06,0,0,0-.47,2.33C434,438,428,438.45,427.5,438s0-2.33-1.87-2.33c-6.06.46-7.92-3.73-8.39-7,0-.93-.47-1.4-1.4-.93-2.33,1.87-8.39,5.13-12.12,0-.47-.47-2.33,0-3.27.47s-.93-.94-.93-1.4A12.53,12.53,0,0,1,407,416.07c.93-.46.93-.93.47-1.4-1.87-1.39-5.6-4.66-4.2-7.92,0-.47-2.8-1.87-2.33-2.33,7.46-5.13,16.32,3.26,17.72,4.19s7.92,1.4,24.71-8.39c10.72-6.06,16.32-10.72,19.12-14.45a2.88,2.88,0,0,1,2.33-1.4c6.53,0,13.52-1.4,18.65-5.6a1.54,1.54,0,0,1,2.33,0c9.79,6.53,14.45-7.92,16.32-14.92.46-1.4.46-2.33,1.86-2.79,35.44,1.86,102.11,1.39,102.11,1.39s8.86.47,8.4-4.66c-.47-8.86-37.3-8.39-64.35-4.66-9.79,1.4-24.24,2.33-32.64-.93a14.13,14.13,0,0,1-7.92-6.53,10,10,0,0,1-.93-7.93,24.51,24.51,0,0,1,2.33-5.13c7-10.72,23.31-11.65,28-11.65a2.44,2.44,0,0,0,1.87-.94c.46-2.33,2.33-8.39,9.32-8.39,1.87,0,3.73-.93,5.13-1.4.93-.46,1.4,0,.93.47a4,4,0,0,1-1.39,2.8c-4.67,4.19-4.2,6.06-3.27,6.52a.64.64,0,0,0,.93,0c14.46-12.58,22.85-4.19,25.18-1.39.47.46.47,1.39-.46,1.39-9.8,2.34-13.53,10.73-33.57,9.33-2.34,0-18.66-.93-23.78,6.53-2.8,4.19-.94,8.39,7.92,10.26,6.53,1.39,22.38-.94,29.84-1.4,7-.47,38.7-4.67,55,0,7,1.86,17.25,7.46,14.92,18.18-1.4,6.53-7.93,9.33-7.93,9.33s-18.18,12.58,14.46,13.05c10.26,0,0,8.39-.47,10.72,0,1.87,1.87,3.27,3.27,4.2Zm-59.22-70.4a7.39,7.39,0,0,0-3.73,1.4c-2.8,1.86-14.45,7-18.18.93,0,0,8.39-.47,13.52-5.13,0,0,5.59-1.87,9.32.93-.46.93,0,1.87-.93,1.87ZM500.23,265c-110.5,0-220.54,29.37-220.54,29.37V441.25c0,132.42,94.65,270,220.08,293.74,130.08-25.64,220.54-161.32,220.54-293.74V294.38S628.45,265,500.23,265ZM687.67,494.87c0,107.71-82.06,205.62-187.44,205.62-105.84,0-187.9-97.91-187.9-205.62V309.3l2.8-.93S410.25,279,499.77,279,684.4,308.37,684.4,308.37l2.8.93V494.87Z"/></svg>